<?xml version="1.0" standalone="no"?><!DOCTYPE svg PUBLIC "-//W3C//DTD SVG 1.1//EN" "http://www.w3.org/Graphics/SVG/1.1/DTD/svg11.dtd"><svg t="1560408043848" class="icon" style="" viewBox="0 0 1160 1024" version="1.1" xmlns="http://www.w3.org/2000/svg" p-id="3150" xmlns:xlink="http://www.w3.org/1999/xlink" width="18.125" height="16"><defs><style type="text/css"></style></defs><path d="M1086.280057 0H72.41867a72.41867 72.41867 0 0 0-72.41867 72.41867v879.16266a72.41867 72.41867 0 0 0 72.41867 72.41867h1013.861387a72.41867 72.41867 0 0 0 72.41867-72.41867V72.41867a72.41867 72.41867 0 0 0-72.41867-72.41867z m0 987.790665v-36.209335H72.41867V72.41867h1013.861387v879.16266z" fill="#1296db" p-id="3151"></path><path d="M941.442716 172.356436H491.722772a72.41867 72.41867 0 0 0-72.41867 72.41867v144.837341a72.41867 72.41867 0 0 0 72.41867 72.41867H941.442716a72.41867 72.41867 0 0 0 72.41867-72.41867v-144.837341a72.41867 72.41867 0 0 0-72.41867-72.41867z m0 217.256011H491.722772v-144.837341H941.442716z m0 36.209335v-36.209335z" fill="#1296db" p-id="3152"></path><path d="M899.439887 620.628006a107.179632 107.179632 0 0 0-100.661952 72.41867H269.397454V380.19802a107.179632 107.179632 0 1 0-72.41867 0v312.124469a72.41867 72.41867 0 0 0 72.41867 72.418671H796.605375a107.179632 107.179632 0 1 0 100.661952-144.837341z m-666.251768-375.8529a34.036775 34.036775 0 0 1 34.760962 34.760962 34.760962 34.760962 0 0 1-72.418671 0 34.036775 34.036775 0 0 1 37.657709-34.760962z m666.251768 518.51768a35.485149 35.485149 0 1 1 34.760962-34.760961 34.760962 34.760962 0 0 1-34.760962 34.760961z" fill="#1296db" p-id="3153"></path></svg>