<?xml version="1.0" encoding="UTF-8"?>
<svg width="22px" height="18px" viewBox="0 0 22 18" version="1.1" xmlns="http://www.w3.org/2000/svg" xmlns:xlink="http://www.w3.org/1999/xlink">
    <!-- Generator: Sketch 56.1 (81669) - https://sketch.com -->
    <title>收起</title>
    <desc>Created with Sketch.</desc>
    <g id="页面" stroke="none" stroke-width="1" fill="none" fill-rule="evenodd">
        <g id="在线监管" transform="translate(-261.000000, -21.000000)">
            <g id="收起" transform="translate(260.000000, 18.000000)">
                <rect id="Rectangle-48-Copy-10" x="0" y="0" width="24" height="24"></rect>
                <g id="menufold" transform="translate(1.453125, 3.000000)" fill="#677881" fill-rule="nonzero">
                    <path d="M0.8625,1.70625 L20.2710938,1.70625 C20.7375,1.70625 21.1148438,1.32890625 21.1148438,0.8625 C21.1148438,0.39609375 20.7375,0.01875 20.2710938,0.01875 L0.8625,0.01875 C0.39609375,0.01875 0.01875,0.39609375 0.01875,0.8625 C0.01875,1.32890625 0.39609375,1.70625 0.8625,1.70625 Z M20.2242187,7.4484375 L6.9796875,7.4484375 C6.51328125,7.4484375 6.1359375,7.82578125 6.1359375,8.2921875 C6.1359375,8.75859375 6.51328125,9.1359375 6.9796875,9.1359375 L20.2242187,9.1359375 C20.690625,9.1359375 21.0679687,8.75859375 21.0679687,8.2921875 C21.0679687,7.82578125 20.6882812,7.4484375 20.2242187,7.4484375 Z M20.2710938,16.3078125 L0.9328125,16.3078125 C0.46640625,16.3078125 0.0890625,16.6851562 0.0890625,17.1515625 C0.0890625,17.6179687 0.46640625,17.9953125 0.9328125,17.9953125 L20.2710938,17.9953125 C20.7375,17.9953125 21.1148438,17.6179687 21.1148438,17.1515625 C21.1148438,16.6851562 20.7351563,16.3078125 20.2710938,16.3078125 Z M3.16640625,11.4140625 C3.33046875,11.5757812 3.54375,11.6554687 3.75703125,11.6554687 C3.975,11.6554687 4.19296875,11.5710937 4.359375,11.4023438 C4.68515625,11.0695312 4.6828125,10.5351562 4.35,10.209375 L2.1140625,8.0109375 L4.31015625,5.94140625 C4.65,5.62265625 4.66640625,5.08828125 4.3453125,4.7484375 C4.0265625,4.40859375 3.4921875,4.39453125 3.15234375,4.71328125 L0.31875,7.38515625 C0.15234375,7.5421875 0.05625,7.76015625 0.0538622634,7.98984375 C0.0515625,8.21953125 0.14296875,8.43984375 0.30703125,8.6015625 L3.16640625,11.4140625 Z" id="Shape"></path>
                </g>
            </g>
        </g>
    </g>
</svg>