<?xml version="1.0" standalone="no"?><!DOCTYPE svg PUBLIC "-//W3C//DTD SVG 1.1//EN" "http://www.w3.org/Graphics/SVG/1.1/DTD/svg11.dtd"><svg t="1556175331251" class="icon" style="" viewBox="0 0 1024 1024" version="1.1" xmlns="http://www.w3.org/2000/svg" p-id="2399" xmlns:xlink="http://www.w3.org/1999/xlink" width="200" height="200"><defs><style type="text/css"></style></defs><path d="M192.037 767.802h256.05v63.919H128.025V191.784h320.062V254.8H191.041zM577.112 767.989h63.012v63.016h-63.012zM832.476 768.129h63.015v63.016h-63.015zM832.476 640.292h63.015v63.015h-63.015zM705.083 768.129h63.015v63.016h-63.015zM832.476 448.209h63.015v127.339h-63.015zM832.476 320.223h63.015v63.015h-63.015zM705.083 193.264h63.015v63.016h-63.015zM832.477 193.264h63.012v63.016h-63.012zM577.111 193.264h63.015v63.016h-63.015zM479.825 127.99h63.016v767.649h-63.016z" fill="#ffffff" p-id="2400"></path></svg>
