<?xml version="1.0" standalone="no"?><!DOCTYPE svg PUBLIC "-//W3C//DTD SVG 1.1//EN" "http://www.w3.org/Graphics/SVG/1.1/DTD/svg11.dtd"><svg t="1532333110075" class="icon" style="" viewBox="0 0 1024 1024" version="1.1" xmlns="http://www.w3.org/2000/svg" p-id="6198" xmlns:xlink="http://www.w3.org/1999/xlink" width="48" height="48"><defs><style type="text/css"></style></defs><path d="M657.944442 315.841412c-0.00307 72.538083 0.112564 145.075143-0.182149 217.61118-0.028653 7.459902 1.855254 9.899464 9.346879 9.262968 7.998161-0.682545 16.105816-0.254803 24.164353-0.105401 15.606443 0.293689 25.924439 10.602476 26.03291 25.819039 0.12382 17.450441-9.580193 28.895097-25.499767 29.53978-8.939603 0.360204-17.928325 0.436952-26.857694-0.063445-6.623861-0.370437-9.103332 1.116427-9.081843 8.576329 0.286526 101.491509 0.204661 202.985064 0.211824 304.477596 0 5.375427 0.066515 10.749832-0.065492 16.121166-0.384763 15.651468-11.30651 26.285666-26.820855 26.215058-15.33322-0.069585-26.503631-10.79895-26.631544-26.51284-0.26913-33.43039-0.147356-66.864874-0.147356-100.299357 0.002047-73.432453-0.069585-146.863882 0.211824-220.295312 0.025583-6.820336-1.824555-8.733918-8.459672-8.303106-8.919137 0.576121-17.907858 0.331551-26.855648 0.072655-14.976086-0.436952-25.707498-11.519358-25.929556-26.420743-0.218988-14.507412 10.642384-26.317389 25.462928-27.013237 9.829879-0.457418 19.736507-0.650823 29.537733 0.049119 7.364735 0.525979 8.070816-2.697435 8.051373-8.794293-0.186242-56.716746-0.102331-113.433492-0.095167-170.149215 0.011256-88.956008-0.01228-177.910992 0.063445-266.865977 0.016373-19.031449 10.720156-30.239721 27.950586-29.751604 15.315824 0.433882 25.535583 11.223622 25.557072 27.424606 0.073678 59.999512 0.034792 120.001071 0.040932 180.000584C657.951605 289.572118 657.950582 302.707276 657.944442 315.841412z" p-id="6199" fill="#0e6767"></path><path d="M365.695355 687.829588c-0.013303-78.519308-0.105401-157.040662 0.147356-235.55997 0.021489-6.880711-1.437745-9.505491-8.696056-8.934486-8.3072 0.653893-16.717753 0.414439-25.063839 0.077771-17.22429-0.694825-27.610848-11.357675-27.368324-27.672246 0.232291-15.587 11.07729-25.580608 28.057009-25.765827 8.358365-0.091074 16.744359-0.462534 25.069979 0.052189 6.228865 0.385786 8.030907-1.475608 7.985882-7.846712-0.282433-40.302915-0.105401-80.607876-0.104377-120.912837 0-54.934147-0.128937-109.869317 0.01842-164.801417 0.058328-21.964244 21.543665-34.738176 40.192398-24.158213 10.250458 5.816472 13.430894 15.250332 13.417591 26.448372-0.064468 54.336536-0.00921 108.674095-0.007163 163.010631 0.001023 40.007179 0.160659 80.014358-0.186242 120.018467-0.059352 6.837732 1.847068 8.755408 8.507768 8.272407 8.314363-0.603751 16.71059-0.217964 25.067932-0.068562 15.390525 0.276293 27.061332 11.80486 27.608801 27.105335 0.555655 15.585977-10.028401 27.247574-26.152637 28.16855-8.630564 0.49221-17.333784 0.50142-25.962302-0.00307-6.630001-0.387833-9.113565 1.081635-9.091052 8.552793 0.287549 99.717096 0.208754 199.437262 0.208754 299.154357 0 56.724932 0.084934 113.450888-0.086981 170.175821-0.064468 21.243837-18.196431 33.923624-37.187971 26.460652-10.815323-4.251837-16.370853-13.280468-16.375969-27.111474-0.027629-61.802578 0.004093-123.603109 0.013303-185.40364C365.709681 720.668507 365.707634 704.250582 365.695355 687.829588z" p-id="6200" fill="#0e6767"></path><path d="M845.500095 567.117318c0-118.195959-0.088004-236.393965 0.187265-354.591971 0.019443-8.293897-2.185782-10.952446-10.428513-10.265808-8.593725 0.715291-17.305131 0.312108-25.951045 0.001023-13.265118-0.474814-23.353894-9.844206-24.743544-22.559808-1.623987-14.83487 5.970992-26.450419 19.699668-29.751604 10.599406-2.550079 21.430078-1.208525 32.111349-0.921999 7.627724 0.203638 9.567913-2.338255 9.287527-9.632381-0.550539-14.304797-0.279363-28.64848-0.11154-42.973744 0.191358-16.261359 9.586332-26.608008 24.511253-27.368324 16.181541-0.822738 27.606755 8.54563 28.638247 25.207102 0.958838 15.462157 0.591471 31.030737 0.231267 46.538943-0.144286 6.158257 1.477654 8.534374 7.909134 8.143471 8.326643-0.506537 16.71366-0.336668 25.061792-0.069585 16.993023 0.539282 28.27702 11.531638 28.211529 27.16264-0.063445 15.553231-11.633968 26.174126-28.725228 26.316366-7.460925 0.062422-14.965853 0.542352-22.373567-0.083911-7.674796-0.648776-10.211573 1.596358-10.136871 9.724479 0.403183 43.275619 0.153496 86.556355 0.157589 129.836067 0.016373 193.114253 0.052189 386.226458 0.039909 579.342758-0.002047 20.998243-13.812587 33.360805-32.962739 29.774117-12.717649-2.38328-20.519336-12.534478-20.564361-27.439956-0.127913-41.488927-0.10847-82.978876-0.115634-124.46678-0.011256-77.305667-0.00307-154.611334-0.00307-231.921093C845.454046 567.117318 845.475536 567.117318 845.500095 567.117318z" p-id="6201" fill="#0e6767"></path><path d="M125.0209 381.76382c-0.00307-77.289294-0.004093-154.578588-0.001023-231.868905 0.001023-17.609053-0.122797-35.220153 0.072655-52.827159 0.195451-17.625426 10.334369-28.141944 26.611078-28.052916 16.367783 0.092098 26.423813 10.432607 26.444279 28.27088 0.130983 111.358227 0.097214 222.715431 0.100284 334.072635 0.00307 77.920674 0.066515 155.841348-0.183172 233.762021-0.022513 7.144724 1.464351 10.31902 9.245572 9.69685 8.008394-0.64059 16.110933-0.186242 24.170492-0.098237 14.639418 0.149403 24.847921 9.030677 26.243711 22.726607 1.648546 16.159028-6.451946 28.626991-21.048385 31.715329-10.605545 2.243087-21.440311 1.162476-32.132838 0.805342-6.92062-0.231267-8.40953 2.088568-8.383948 8.634658 0.236384 61.500703 0.185218 123.000382 0.10847 184.501084-0.023536 18.808368-11.920494 29.80891-30.000268 28.132734-14.003945-1.298576-23.055089-11.732206-23.391756-27.865651-0.347924-16.711614-0.13303-33.434483-0.1361-50.154283-0.010233-44.781926-0.162706-89.565898 0.155543-134.343731 0.052189-7.17747-2.115174-9.335622-9.079796-8.848529-8.319479 0.576121-16.723893 0.48607-25.064862 0.105401-16.216333-0.738827-27.362184-12.246929-27.055193-27.429723 0.313132-15.448854 11.494799-25.876344 28.081569-26.058492 9.253758-0.105401 18.530029-0.408299 27.757181 0.095167 6.03853 0.328481 7.628748-1.802042 7.593955-7.589862-0.210801-35.809577-0.105401-71.619154-0.105401-107.428731C125.021923 501.730099 125.021923 441.745936 125.0209 381.76382z" p-id="6202" fill="#0e6767"></path></svg>