<?xml version="1.0" standalone="no"?><!DOCTYPE svg PUBLIC "-//W3C//DTD SVG 1.1//EN" "http://www.w3.org/Graphics/SVG/1.1/DTD/svg11.dtd"><svg class="icon" width="200px" height="200.00px" viewBox="0 0 1024 1024" version="1.1" xmlns="http://www.w3.org/2000/svg"><path d="M885.476 810.685H580.147c-20.43 0-52.02 8.05-69.822 17.584l-231.04 123.749c-36.424 19.51-65.952 2.097-65.952-39.594V848.15c0-20.692-16.552-37.465-37.683-37.465h-36.983C97.429 810.685 64 777.151 64 736.36V138.325C64 97.276 97.489 64 138.851 64H885.15C926.488 64 960 97.534 960 138.325V736.36c0 41.049-33.408 74.325-74.524 74.325zM214.6 735.863c41.2 0 74.6 33.623 74.6 74.435v19.063c0 20.47 14.508 28.499 32.153 18.08l156.816-92.593c17.758-10.485 48.78-18.985 69.548-18.985h300.888c20.653 0 37.395-16.587 37.395-37.337v-522.19c0-20.62-16.983-37.336-36.994-37.336H176.994C156.563 139 140 155.586 140 176.336v522.19c0 20.62 16.537 37.337 37.65 37.337h36.95zM289 549.5c0-20.71 17.015-37.5 37.426-37.5h373.148c20.67 0 37.426 16.645 37.426 37.5 0 20.71-17.015 37.5-37.426 37.5H326.426C305.756 587 289 570.355 289 549.5z m0-225c0-20.71 17.015-37.5 37.426-37.5h373.148c20.67 0 37.426 16.645 37.426 37.5 0 20.71-17.015 37.5-37.426 37.5H326.426C305.756 362 289 345.355 289 324.5z"  /></svg>