<?xml version="1.0" standalone="no"?><!DOCTYPE svg PUBLIC "-//W3C//DTD SVG 1.1//EN" "http://www.w3.org/Graphics/SVG/1.1/DTD/svg11.dtd"><svg class="icon" width="48px" height="48.00px" viewBox="0 0 1024 1024" version="1.1" xmlns="http://www.w3.org/2000/svg"><path d="M736 800h-96a32 32 0 0 1 0-64h64V288H320v160a32 32 0 0 1-64 0V256a32 32 0 0 1 32-32h448a32 32 0 0 1 32 32v512a32 32 0 0 1-32 32z m-320 0a31.968 31.968 0 0 1-22.72-54.72L466.56 672l-73.28-73.28a32 32 0 0 1 45.12-45.12l96 96a32 32 0 0 1 0 45.12l-96 96a31.968 31.968 0 0 1-22.4 9.28z m96-96H288a32 32 0 0 1 0-64h224a32 32 0 0 1 0 64z" fill="#ffffff" /></svg>