<?xml version="1.0" standalone="no"?><!DOCTYPE svg PUBLIC "-//W3C//DTD SVG 1.1//EN" "http://www.w3.org/Graphics/SVG/1.1/DTD/svg11.dtd"><svg t="1536038980924" class="icon" style="" viewBox="0 0 1024 1024" version="1.1" xmlns="http://www.w3.org/2000/svg" p-id="2252" xmlns:xlink="http://www.w3.org/1999/xlink" width="200" height="200"><defs><style type="text/css"></style></defs><path d="M400.924 667.506h399.869c13.329 0 22.218 8.885 22.218 22.218s-8.885 22.218-22.218 22.218h-399.869c-13.329 0-22.218-8.885-22.218-22.218s8.885-22.218 22.218-22.218zM245.421 378.711c-24.435 0-44.427-19.991-44.427-44.427s19.991-44.427 44.427-44.427c24.435 0 44.427 19.991 44.427 44.427 0 24.435-19.991 44.427-44.427 44.427zM245.421 556.427c-24.435 0-44.427-19.991-44.427-44.427s19.991-44.427 44.427-44.427c24.435 0 44.427 19.991 44.427 44.427s-19.991 44.427-44.427 44.427zM245.421 734.149c-24.435 0-44.427-19.991-44.427-44.427s19.991-44.427 44.427-44.427c24.435 0 44.427 19.991 44.427 44.427 0 24.435-19.991 44.427-44.427 44.427zM800.797 356.494h-399.869c-13.329 0-22.218-8.885-22.218-22.218s8.885-22.218 22.218-22.218h399.869c13.329 0 22.218 8.885 22.218 22.218s-8.885 22.218-22.218 22.218zM800.797 534.218h-399.869c-13.329 0-22.218-8.885-22.218-22.218s8.885-22.218 22.218-22.218h399.869c13.329 0 22.218 8.885 22.218 22.218s-8.885 22.218-22.218 22.218z" p-id="2253"></path></svg>