<?xml version="1.0" encoding="UTF-8"?>
<svg width="48px" height="48px" viewBox="0 0 48 48" version="1.1" xmlns="http://www.w3.org/2000/svg" xmlns:xlink="http://www.w3.org/1999/xlink">
    <!-- Generator: Sketch 56.1 (81669) - https://sketch.com -->
    <title>logo</title>
    <desc>Created with Sketch.</desc>
    <defs>
        <path d="M23.8800016,0 L23.8800016,1.28737876 L26.0553398,1.28737876 C26.5585482,1.28737876 26.9702048,1.69698449 26.9702048,2.19736066 L26.9702048,2.19736066 L26.9702048,5.95213404 C26.9702048,6.45283556 26.5585482,6.86211594 26.0553398,6.86211594 L26.0553398,6.86211594 L26.0523971,6.86211594 C26.1674909,6.72840033 26.2361548,6.5543423 26.2361548,6.36564387 L26.2361548,6.36564387 L26.2361548,3.18867809 C26.2361548,2.765408 25.8885846,2.41924399 25.4628684,2.41924399 L25.4628684,2.41924399 L22.2699963,2.41924399 C21.844934,2.41924399 21.4967099,2.765408 21.4967099,3.18867809 L21.4967099,3.18867809 L21.4967099,6.36564387 C21.4967099,6.78891397 21.844934,7.13540332 22.2699963,7.13540332 L22.2699963,7.13540332 L23.8800016,7.13540332 L23.8800016,14.6254296 C29.0834185,14.6254296 33.3013447,18.8229936 33.3013447,23.9998373 L33.3013447,23.9998373 C33.3013447,28.6366132 29.9185025,32.4863865 25.4752933,33.2405295 L25.4752933,33.2405295 C25.7891854,33.261026 26.0402992,33.5229265 26.0402992,33.8404604 L26.0402992,33.8404604 L26.0402992,36.3244474 C26.0402992,36.6553204 25.7682593,36.9256797 25.4357298,36.9256797 L25.4357298,36.9256797 L25.4030327,36.9256797 C25.409899,36.8937961 25.4144766,36.8602859 25.4144766,36.8257996 L25.4144766,36.8257996 L25.4144766,34.9462982 C25.4144766,34.6957848 25.2088119,34.4914699 24.9563902,34.4914699 L24.9563902,34.4914699 L23.0674786,34.4914699 C22.8160379,34.4914699 22.6103732,34.6957848 22.6103732,34.9462982 L22.6103732,34.9462982 L22.6103732,36.8257996 C22.6103732,37.0766384 22.8160379,37.2816039 23.0674786,37.2816039 L23.0674786,37.2816039 L23.8800016,37.2816039 L23.8800016,38.8396673 C23.9787469,38.7983489 24.0866473,38.7755749 24.1997793,38.7755749 L24.1997793,38.7755749 L27.6280705,38.7755749 C28.084849,38.7755749 28.4579229,39.1467903 28.4579229,39.6016186 L28.4579229,39.6016186 L28.4579229,43.0128307 C28.4579229,43.467659 28.084849,43.8388743 27.6280705,43.8388743 L27.6280705,43.8388743 L27.1765235,43.8388743 C27.2703642,43.7204498 27.3262762,43.5711178 27.3262762,43.4094227 L27.3262762,43.4094227 L27.3262762,40.5421826 C27.3262762,40.1595803 27.012711,39.8472519 26.6281931,39.8472519 L26.6281931,39.8472519 L23.7465975,39.8472519 C23.3617526,39.8472519 23.0485143,40.1595803 23.0485143,40.5421826 L23.0485143,40.5421826 L23.0485143,43.4094227 C23.0485143,43.7920251 23.3617526,44.1040281 23.7465975,44.1040281 L23.7465975,44.1040281 L23.8800016,44.1040281 L23.8800016,48 C37.1628724,48 47.9382025,37.3154395 48,24.112731 L48,24.112731 L48,23.8866183 C47.9382025,10.6845605 37.1628724,0 23.8800016,0 Z M19.3494912,0.389434515 C19.1719459,0.389434515 19.0267708,0.533886415 19.0267708,0.710221843 L19.0267708,0.710221843 L19.0267708,2.03371358 C19.0267708,2.21037435 19.1719459,2.35482625 19.3494912,2.35482625 L19.3494912,2.35482625 L20.6799362,2.35482625 C20.8568276,2.35482625 21.0020027,2.21037435 21.0020027,2.03371358 L21.0020027,2.03371358 L21.0020027,0.710221843 C21.0020027,0.533886415 20.8568276,0.389434515 20.6799362,0.389434515 L20.6799362,0.389434515 L19.3494912,0.389434515 Z M11.9285568,3.33247931 C11.249765,3.33247931 10.6948952,3.88491023 10.6948952,4.56032046 L10.6948952,4.56032046 L10.6948952,9.62589723 C10.6948952,10.3009821 11.249765,10.8530877 11.9285568,10.8530877 L11.9285568,10.8530877 L17.0191687,10.8530877 C17.6979605,10.8530877 18.2531573,10.3009821 18.2531573,9.62589723 L18.2531573,9.62589723 L18.2531573,4.56032046 C18.2531573,3.88491023 17.6979605,3.33247931 17.0191687,3.33247931 L17.0191687,3.33247931 L11.9285568,3.33247931 Z M19.9691012,8.00536814 C19.7088323,8.00536814 19.4966281,8.21651518 19.4966281,8.4754875 L19.4966281,8.4754875 L19.4966281,10.4161532 C19.4966281,10.6754509 19.7088323,10.8865979 19.9691012,10.8865979 L19.9691012,10.8865979 L21.9191564,10.8865979 C22.1797523,10.8865979 22.3922835,10.6754509 22.3922835,10.4161532 L22.3922835,10.4161532 L22.3922835,8.4754875 C22.3922835,8.21651518 22.1797523,8.00536814 21.9191564,8.00536814 L21.9191564,8.00536814 L19.9691012,8.00536814 Z M5.60493726,8.54348401 C5.42150652,8.54348401 5.27175379,8.69281604 5.27175379,8.87565831 L5.27175379,8.87565831 L5.27175379,10.247626 C5.27175379,10.4304683 5.42150652,10.5798003 5.60493726,10.5798003 L5.60493726,10.5798003 L6.98377406,10.5798003 C7.16753178,10.5798003 7.31728451,10.4304683 7.31728451,10.247626 L7.31728451,10.247626 L7.31728451,8.87565831 C7.31728451,8.69281604 7.16753178,8.54348401 6.98377406,8.54348401 L6.98377406,8.54348401 L5.60493726,8.54348401 Z M11.3606082,11.9244393 C11.1693301,11.9244393 11.0120571,12.0809289 11.0120571,12.2719047 L11.0120571,12.2719047 L11.0120571,13.7047114 C11.0120571,13.8953618 11.1693301,14.0518514 11.3606082,14.0518514 L11.3606082,14.0518514 L12.8009155,14.0518514 C12.9928475,14.0518514 13.1497936,13.8953618 13.1497936,13.7047114 L13.1497936,13.7047114 L13.1497936,12.2719047 C13.1497936,12.0809289 12.9928475,11.9244393 12.8009155,11.9244393 L12.8009155,11.9244393 L11.3606082,11.9244393 Z M3.24420648,12.7940788 C2.63800221,12.7940788 2.1416602,13.2876228 2.1416602,13.8911324 L2.1416602,13.8911324 L2.1416602,18.4179426 C2.1416602,19.0214522 2.63800221,19.5146709 3.24420648,19.5146709 L3.24420648,19.5146709 L7.79368128,19.5146709 C8.40021253,19.5146709 8.89622757,19.0214522 8.89622757,18.4179426 L8.89622757,18.4179426 L8.89622757,13.8911324 C8.89622757,13.2876228 8.40021253,12.7940788 7.79368128,12.7940788 L7.79368128,12.7940788 L3.24420648,12.7940788 Z M17.0570973,13.4079993 C16.82364,13.4079993 16.6326889,13.5979991 16.6326889,13.8299681 L16.6326889,13.8299681 L16.6326889,15.5728258 C16.6326889,15.8047947 16.82364,15.9947945 17.0570973,15.9947945 L17.0570973,15.9947945 L18.8080271,15.9947945 C19.0414844,15.9947945 19.2324355,15.8047947 19.2324355,15.5728258 L19.2324355,15.5728258 L19.2324355,13.8299681 C19.2324355,13.5979991 19.0414844,13.4079993 18.8080271,13.4079993 L18.8080271,13.4079993 L17.0570973,13.4079993 Z M12.1548208,15.7865756 C11.8337352,15.7865756 11.5708505,16.0481506 11.5708505,16.3676366 L11.5708505,16.3676366 L11.5708505,18.7667094 C11.5708505,19.0861953 11.8337352,19.3477704 12.1548208,19.3477704 L12.1548208,19.3477704 L14.5655781,19.3477704 C14.8869906,19.3477704 15.1502023,19.0861953 15.1502023,18.7667094 L15.1502023,18.7667094 L15.1502023,16.3676366 C15.1502023,16.0481506 14.8869906,15.7865756 14.5655781,15.7865756 L14.5655781,15.7865756 L12.1548208,15.7865756 Z M0.45743246,20.0514854 C0.205664773,20.0514854 0,20.2564509 0,20.506639 L0,20.506639 L0,22.3864658 C0,22.6369792 0.205664773,22.8416194 0.45743246,22.8416194 L0.45743246,22.8416194 L2.34634406,22.8416194 C2.59811174,22.8416194 2.80410349,22.6369792 2.80410349,22.3864658 L2.80410349,22.3864658 L2.80410349,20.506639 C2.80410349,20.2564509 2.59811174,20.0514854 2.34634406,20.0514854 L2.34634406,20.0514854 L0.45743246,20.0514854 Z M8.9907222,20.7360052 C8.83639187,20.7360052 8.710835,20.8609366 8.710835,21.0138474 L8.710835,21.0138474 L8.710835,22.1616544 C8.710835,22.3148905 8.83639187,22.4394965 8.9907222,22.4394965 L8.9907222,22.4394965 L10.143949,22.4394965 C10.2976254,22.4394965 10.4235092,22.3148905 10.4235092,22.1616544 L10.4235092,22.1616544 L10.4235092,21.0138474 C10.4235092,20.8609366 10.2976254,20.7360052 10.143949,20.7360052 L10.143949,20.7360052 L8.9907222,20.7360052 Z M2.79789104,24.0753167 C1.92978297,24.0753167 1.21992888,24.7816344 1.21992888,25.6450924 L1.21992888,25.6450924 L1.21992888,32.1207019 C1.21992888,32.9844852 1.92978297,33.6904776 2.79789104,33.6904776 L2.79789104,33.6904776 L9.30592226,33.6904776 C10.1740303,33.6904776 10.8835574,32.9844852 10.8835574,32.1207019 L10.8835574,32.1207019 L10.8835574,25.6450924 C10.8835574,24.7816344 10.1740303,24.0753167 9.30592226,24.0753167 L9.30592226,24.0753167 L2.79789104,24.0753167 Z M13.7465157,25.5936884 C13.4254302,25.5936884 13.1622185,25.8552634 13.1622185,26.1747494 L13.1622185,26.1747494 L13.1622185,28.5738222 C13.1622185,28.8933081 13.4254302,29.1548832 13.7465157,29.1548832 L13.7465157,29.1548832 L16.1572731,29.1548832 C16.4783586,29.1548832 16.7415703,28.8933081 16.7415703,28.5738222 L16.7415703,28.5738222 L16.7415703,26.1747494 C16.7415703,25.8552634 16.4783586,25.5936884 16.1572731,25.5936884 L16.1572731,25.5936884 L13.7465157,25.5936884 Z M18.8734213,30.3000874 C18.6216537,30.3000874 18.4166428,30.5044023 18.4166428,30.7549157 L18.4166428,30.7549157 L18.4166428,32.6347425 C18.4166428,32.8855812 18.6216537,33.0902214 18.8734213,33.0902214 L18.8734213,33.0902214 L20.7626599,33.0902214 C21.0147546,33.0902214 21.2204193,32.8855812 21.2204193,32.6347425 L21.2204193,32.6347425 L21.2204193,30.7549157 C21.2204193,30.5044023 21.0147546,30.3000874 20.7626599,30.3000874 L20.7626599,30.3000874 L18.8734213,30.3000874 Z M14.2909225,31.6151203 C14.1647117,31.6151203 14.0620428,31.7169524 14.0620428,31.8422091 L14.0620428,31.8422091 L14.0620428,32.7827731 C14.0620428,32.9080299 14.1647117,33.0101873 14.2909225,33.0101873 L14.2909225,33.0101873 L15.2358687,33.0101873 C15.3620795,33.0101873 15.4644215,32.9080299 15.4644215,32.7827731 L15.4644215,32.7827731 L15.4644215,31.8422091 C15.4644215,31.7169524 15.3620795,31.6151203 15.2358687,31.6151203 L15.2358687,31.6151203 L14.2909225,31.6151203 Z M12.1728042,35.1558185 C11.3046961,35.1558185 10.595169,35.8621363 10.595169,36.7255943 L10.595169,36.7255943 L10.595169,43.2012038 C10.595169,44.0649871 11.3046961,44.7713048 12.1728042,44.7713048 L12.1728042,44.7713048 L18.6808354,44.7713048 C19.5486165,44.7713048 20.2587976,44.0649871 20.2587976,43.2012038 L20.2587976,43.2012038 L20.2587976,36.7255943 C20.2587976,35.8621363 19.5486165,35.1558185 18.6808354,35.1558185 L18.6808354,35.1558185 L12.1728042,35.1558185 Z M5.58793477,36.5801663 C5.33616708,36.5801663 5.13017534,36.7851319 5.13017534,37.03532 L5.13017534,37.03532 L5.13017534,38.9148214 C5.13017534,39.1656601 5.33616708,39.3703003 5.58793477,39.3703003 L5.58793477,39.3703003 L7.47684636,39.3703003 C7.72894102,39.3703003 7.93427882,39.1656601 7.93427882,38.9148214 L7.93427882,38.9148214 L7.93427882,37.03532 C7.93427882,36.7851319 7.72894102,36.5801663 7.47684636,36.5801663 L7.47684636,36.5801663 L5.58793477,36.5801663 Z M20.6524707,44.9082739 C20.388932,44.9082739 20.1737851,45.1220236 20.1737851,45.3842494 L20.1737851,45.3842494 L20.1737851,47.3499664 C20.1737851,47.6118669 20.388932,47.8256166 20.6524707,47.8256166 L20.6524707,47.8256166 L22.6280296,47.8256166 C22.8909143,47.8256166 23.1067152,47.6118669 23.1067152,47.3499664 L23.1067152,47.3499664 L23.1067152,45.3842494 C23.1067152,45.1220236 22.8909143,44.9082739 22.6280296,44.9082739 L22.6280296,44.9082739 L20.6524707,44.9082739 Z" id="path-1"></path>
        <linearGradient x1="0%" y1="49.9999319%" x2="99.9999182%" y2="49.9999319%" id="linearGradient-3">
            <stop stop-color="#FE9A02" offset="0%"></stop>
            <stop stop-color="#52C6EB" offset="100%"></stop>
        </linearGradient>
    </defs>
    <g id="页面" stroke="none" stroke-width="1" fill="none" fill-rule="evenodd">
        <g id="在线监管" transform="translate(-96.000000, -33.000000)">
            <g id="logo" transform="translate(96.000000, 33.000000)">
                <mask id="mask-2" fill="white">
                    <use xlink:href="#path-1"></use>
                </mask>
                <g id="Clip-2"></g>
                <path d="M23.8800016,0 L23.8800016,1.28737876 L26.0553398,1.28737876 C26.5585482,1.28737876 26.9702048,1.69698449 26.9702048,2.19736066 L26.9702048,2.19736066 L26.9702048,5.95213404 C26.9702048,6.45283556 26.5585482,6.86211594 26.0553398,6.86211594 L26.0553398,6.86211594 L26.0523971,6.86211594 C26.1674909,6.72840033 26.2361548,6.5543423 26.2361548,6.36564387 L26.2361548,6.36564387 L26.2361548,3.18867809 C26.2361548,2.765408 25.8885846,2.41924399 25.4628684,2.41924399 L25.4628684,2.41924399 L22.2699963,2.41924399 C21.844934,2.41924399 21.4967099,2.765408 21.4967099,3.18867809 L21.4967099,3.18867809 L21.4967099,6.36564387 C21.4967099,6.78891397 21.844934,7.13540332 22.2699963,7.13540332 L22.2699963,7.13540332 L23.8800016,7.13540332 L23.8800016,14.6254296 C29.0834185,14.6254296 33.3013447,18.8229936 33.3013447,23.9998373 L33.3013447,23.9998373 C33.3013447,28.6366132 29.9185025,32.4863865 25.4752933,33.2405295 L25.4752933,33.2405295 C25.7891854,33.261026 26.0402992,33.5229265 26.0402992,33.8404604 L26.0402992,33.8404604 L26.0402992,36.3244474 C26.0402992,36.6553204 25.7682593,36.9256797 25.4357298,36.9256797 L25.4357298,36.9256797 L25.4030327,36.9256797 C25.409899,36.8937961 25.4144766,36.8602859 25.4144766,36.8257996 L25.4144766,36.8257996 L25.4144766,34.9462982 C25.4144766,34.6957848 25.2088119,34.4914699 24.9563902,34.4914699 L24.9563902,34.4914699 L23.0674786,34.4914699 C22.8160379,34.4914699 22.6103732,34.6957848 22.6103732,34.9462982 L22.6103732,34.9462982 L22.6103732,36.8257996 C22.6103732,37.0766384 22.8160379,37.2816039 23.0674786,37.2816039 L23.0674786,37.2816039 L23.8800016,37.2816039 L23.8800016,38.8396673 C23.9787469,38.7983489 24.0866473,38.7755749 24.1997793,38.7755749 L24.1997793,38.7755749 L27.6280705,38.7755749 C28.084849,38.7755749 28.4579229,39.1467903 28.4579229,39.6016186 L28.4579229,39.6016186 L28.4579229,43.0128307 C28.4579229,43.467659 28.084849,43.8388743 27.6280705,43.8388743 L27.6280705,43.8388743 L27.1765235,43.8388743 C27.2703642,43.7204498 27.3262762,43.5711178 27.3262762,43.4094227 L27.3262762,43.4094227 L27.3262762,40.5421826 C27.3262762,40.1595803 27.012711,39.8472519 26.6281931,39.8472519 L26.6281931,39.8472519 L23.7465975,39.8472519 C23.3617526,39.8472519 23.0485143,40.1595803 23.0485143,40.5421826 L23.0485143,40.5421826 L23.0485143,43.4094227 C23.0485143,43.7920251 23.3617526,44.1040281 23.7465975,44.1040281 L23.7465975,44.1040281 L23.8800016,44.1040281 L23.8800016,48 C37.1628724,48 47.9382025,37.3154395 48,24.112731 L48,24.112731 L48,23.8866183 C47.9382025,10.6845605 37.1628724,0 23.8800016,0 Z M19.3494912,0.389434515 C19.1719459,0.389434515 19.0267708,0.533886415 19.0267708,0.710221843 L19.0267708,0.710221843 L19.0267708,2.03371358 C19.0267708,2.21037435 19.1719459,2.35482625 19.3494912,2.35482625 L19.3494912,2.35482625 L20.6799362,2.35482625 C20.8568276,2.35482625 21.0020027,2.21037435 21.0020027,2.03371358 L21.0020027,2.03371358 L21.0020027,0.710221843 C21.0020027,0.533886415 20.8568276,0.389434515 20.6799362,0.389434515 L20.6799362,0.389434515 L19.3494912,0.389434515 Z M11.9285568,3.33247931 C11.249765,3.33247931 10.6948952,3.88491023 10.6948952,4.56032046 L10.6948952,4.56032046 L10.6948952,9.62589723 C10.6948952,10.3009821 11.249765,10.8530877 11.9285568,10.8530877 L11.9285568,10.8530877 L17.0191687,10.8530877 C17.6979605,10.8530877 18.2531573,10.3009821 18.2531573,9.62589723 L18.2531573,9.62589723 L18.2531573,4.56032046 C18.2531573,3.88491023 17.6979605,3.33247931 17.0191687,3.33247931 L17.0191687,3.33247931 L11.9285568,3.33247931 Z M19.9691012,8.00536814 C19.7088323,8.00536814 19.4966281,8.21651518 19.4966281,8.4754875 L19.4966281,8.4754875 L19.4966281,10.4161532 C19.4966281,10.6754509 19.7088323,10.8865979 19.9691012,10.8865979 L19.9691012,10.8865979 L21.9191564,10.8865979 C22.1797523,10.8865979 22.3922835,10.6754509 22.3922835,10.4161532 L22.3922835,10.4161532 L22.3922835,8.4754875 C22.3922835,8.21651518 22.1797523,8.00536814 21.9191564,8.00536814 L21.9191564,8.00536814 L19.9691012,8.00536814 Z M5.60493726,8.54348401 C5.42150652,8.54348401 5.27175379,8.69281604 5.27175379,8.87565831 L5.27175379,8.87565831 L5.27175379,10.247626 C5.27175379,10.4304683 5.42150652,10.5798003 5.60493726,10.5798003 L5.60493726,10.5798003 L6.98377406,10.5798003 C7.16753178,10.5798003 7.31728451,10.4304683 7.31728451,10.247626 L7.31728451,10.247626 L7.31728451,8.87565831 C7.31728451,8.69281604 7.16753178,8.54348401 6.98377406,8.54348401 L6.98377406,8.54348401 L5.60493726,8.54348401 Z M11.3606082,11.9244393 C11.1693301,11.9244393 11.0120571,12.0809289 11.0120571,12.2719047 L11.0120571,12.2719047 L11.0120571,13.7047114 C11.0120571,13.8953618 11.1693301,14.0518514 11.3606082,14.0518514 L11.3606082,14.0518514 L12.8009155,14.0518514 C12.9928475,14.0518514 13.1497936,13.8953618 13.1497936,13.7047114 L13.1497936,13.7047114 L13.1497936,12.2719047 C13.1497936,12.0809289 12.9928475,11.9244393 12.8009155,11.9244393 L12.8009155,11.9244393 L11.3606082,11.9244393 Z M3.24420648,12.7940788 C2.63800221,12.7940788 2.1416602,13.2876228 2.1416602,13.8911324 L2.1416602,13.8911324 L2.1416602,18.4179426 C2.1416602,19.0214522 2.63800221,19.5146709 3.24420648,19.5146709 L3.24420648,19.5146709 L7.79368128,19.5146709 C8.40021253,19.5146709 8.89622757,19.0214522 8.89622757,18.4179426 L8.89622757,18.4179426 L8.89622757,13.8911324 C8.89622757,13.2876228 8.40021253,12.7940788 7.79368128,12.7940788 L7.79368128,12.7940788 L3.24420648,12.7940788 Z M17.0570973,13.4079993 C16.82364,13.4079993 16.6326889,13.5979991 16.6326889,13.8299681 L16.6326889,13.8299681 L16.6326889,15.5728258 C16.6326889,15.8047947 16.82364,15.9947945 17.0570973,15.9947945 L17.0570973,15.9947945 L18.8080271,15.9947945 C19.0414844,15.9947945 19.2324355,15.8047947 19.2324355,15.5728258 L19.2324355,15.5728258 L19.2324355,13.8299681 C19.2324355,13.5979991 19.0414844,13.4079993 18.8080271,13.4079993 L18.8080271,13.4079993 L17.0570973,13.4079993 Z M12.1548208,15.7865756 C11.8337352,15.7865756 11.5708505,16.0481506 11.5708505,16.3676366 L11.5708505,16.3676366 L11.5708505,18.7667094 C11.5708505,19.0861953 11.8337352,19.3477704 12.1548208,19.3477704 L12.1548208,19.3477704 L14.5655781,19.3477704 C14.8869906,19.3477704 15.1502023,19.0861953 15.1502023,18.7667094 L15.1502023,18.7667094 L15.1502023,16.3676366 C15.1502023,16.0481506 14.8869906,15.7865756 14.5655781,15.7865756 L14.5655781,15.7865756 L12.1548208,15.7865756 Z M0.45743246,20.0514854 C0.205664773,20.0514854 0,20.2564509 0,20.506639 L0,20.506639 L0,22.3864658 C0,22.6369792 0.205664773,22.8416194 0.45743246,22.8416194 L0.45743246,22.8416194 L2.34634406,22.8416194 C2.59811174,22.8416194 2.80410349,22.6369792 2.80410349,22.3864658 L2.80410349,22.3864658 L2.80410349,20.506639 C2.80410349,20.2564509 2.59811174,20.0514854 2.34634406,20.0514854 L2.34634406,20.0514854 L0.45743246,20.0514854 Z M8.9907222,20.7360052 C8.83639187,20.7360052 8.710835,20.8609366 8.710835,21.0138474 L8.710835,21.0138474 L8.710835,22.1616544 C8.710835,22.3148905 8.83639187,22.4394965 8.9907222,22.4394965 L8.9907222,22.4394965 L10.143949,22.4394965 C10.2976254,22.4394965 10.4235092,22.3148905 10.4235092,22.1616544 L10.4235092,22.1616544 L10.4235092,21.0138474 C10.4235092,20.8609366 10.2976254,20.7360052 10.143949,20.7360052 L10.143949,20.7360052 L8.9907222,20.7360052 Z M2.79789104,24.0753167 C1.92978297,24.0753167 1.21992888,24.7816344 1.21992888,25.6450924 L1.21992888,25.6450924 L1.21992888,32.1207019 C1.21992888,32.9844852 1.92978297,33.6904776 2.79789104,33.6904776 L2.79789104,33.6904776 L9.30592226,33.6904776 C10.1740303,33.6904776 10.8835574,32.9844852 10.8835574,32.1207019 L10.8835574,32.1207019 L10.8835574,25.6450924 C10.8835574,24.7816344 10.1740303,24.0753167 9.30592226,24.0753167 L9.30592226,24.0753167 L2.79789104,24.0753167 Z M13.7465157,25.5936884 C13.4254302,25.5936884 13.1622185,25.8552634 13.1622185,26.1747494 L13.1622185,26.1747494 L13.1622185,28.5738222 C13.1622185,28.8933081 13.4254302,29.1548832 13.7465157,29.1548832 L13.7465157,29.1548832 L16.1572731,29.1548832 C16.4783586,29.1548832 16.7415703,28.8933081 16.7415703,28.5738222 L16.7415703,28.5738222 L16.7415703,26.1747494 C16.7415703,25.8552634 16.4783586,25.5936884 16.1572731,25.5936884 L16.1572731,25.5936884 L13.7465157,25.5936884 Z M18.8734213,30.3000874 C18.6216537,30.3000874 18.4166428,30.5044023 18.4166428,30.7549157 L18.4166428,30.7549157 L18.4166428,32.6347425 C18.4166428,32.8855812 18.6216537,33.0902214 18.8734213,33.0902214 L18.8734213,33.0902214 L20.7626599,33.0902214 C21.0147546,33.0902214 21.2204193,32.8855812 21.2204193,32.6347425 L21.2204193,32.6347425 L21.2204193,30.7549157 C21.2204193,30.5044023 21.0147546,30.3000874 20.7626599,30.3000874 L20.7626599,30.3000874 L18.8734213,30.3000874 Z M14.2909225,31.6151203 C14.1647117,31.6151203 14.0620428,31.7169524 14.0620428,31.8422091 L14.0620428,31.8422091 L14.0620428,32.7827731 C14.0620428,32.9080299 14.1647117,33.0101873 14.2909225,33.0101873 L14.2909225,33.0101873 L15.2358687,33.0101873 C15.3620795,33.0101873 15.4644215,32.9080299 15.4644215,32.7827731 L15.4644215,32.7827731 L15.4644215,31.8422091 C15.4644215,31.7169524 15.3620795,31.6151203 15.2358687,31.6151203 L15.2358687,31.6151203 L14.2909225,31.6151203 Z M12.1728042,35.1558185 C11.3046961,35.1558185 10.595169,35.8621363 10.595169,36.7255943 L10.595169,36.7255943 L10.595169,43.2012038 C10.595169,44.0649871 11.3046961,44.7713048 12.1728042,44.7713048 L12.1728042,44.7713048 L18.6808354,44.7713048 C19.5486165,44.7713048 20.2587976,44.0649871 20.2587976,43.2012038 L20.2587976,43.2012038 L20.2587976,36.7255943 C20.2587976,35.8621363 19.5486165,35.1558185 18.6808354,35.1558185 L18.6808354,35.1558185 L12.1728042,35.1558185 Z M5.58793477,36.5801663 C5.33616708,36.5801663 5.13017534,36.7851319 5.13017534,37.03532 L5.13017534,37.03532 L5.13017534,38.9148214 C5.13017534,39.1656601 5.33616708,39.3703003 5.58793477,39.3703003 L5.58793477,39.3703003 L7.47684636,39.3703003 C7.72894102,39.3703003 7.93427882,39.1656601 7.93427882,38.9148214 L7.93427882,38.9148214 L7.93427882,37.03532 C7.93427882,36.7851319 7.72894102,36.5801663 7.47684636,36.5801663 L7.47684636,36.5801663 L5.58793477,36.5801663 Z M20.6524707,44.9082739 C20.388932,44.9082739 20.1737851,45.1220236 20.1737851,45.3842494 L20.1737851,45.3842494 L20.1737851,47.3499664 C20.1737851,47.6118669 20.388932,47.8256166 20.6524707,47.8256166 L20.6524707,47.8256166 L22.6280296,47.8256166 C22.8909143,47.8256166 23.1067152,47.6118669 23.1067152,47.3499664 L23.1067152,47.3499664 L23.1067152,45.3842494 C23.1067152,45.1220236 22.8909143,44.9082739 22.6280296,44.9082739 L22.6280296,44.9082739 L20.6524707,44.9082739 Z" id="Fill-1" fill="url(#linearGradient-3)" mask="url(#mask-2)"></path>
            </g>
        </g>
    </g>
</svg>