<?xml version="1.0" encoding="UTF-8"?>
<svg width="20px" height="18px" viewBox="0 0 20 18" version="1.1" xmlns="http://www.w3.org/2000/svg" xmlns:xlink="http://www.w3.org/1999/xlink">
    <!-- Generator: Sketch 52.5 (67469) - http://www.bohemiancoding.com/sketch -->
    <title>指挥记录</title>
    <desc>Created with Sketch.</desc>
    <g id="页面" stroke="none" stroke-width="1" fill="none" fill-rule="evenodd">
        <g id="综合指挥-车辆-轨迹" transform="translate(-60.000000, -277.000000)" fill="#FFFFFF">
            <g id="菜单栏">
                <g id="指挥记录" transform="translate(60.000000, 277.000000)">
                    <path d="M0.7788578,13.8522264 C0.571897731,13.8517449 0.373204662,13.9328011 0.227005007,14.0771373 C0.0808053514,14.2215137 -0.000968717645,14.417453 8.6616656e-06,14.6213776 C8.6616656e-06,15.0488087 0.348525834,15.3939798 0.777269559,15.3939798 L6.77723825,15.3939798 C6.4665538,14.9090068 6.20929942,14.3926948 6.00999549,13.8539518 L0.7788578,13.8522264 Z M0.772413793,0 L17.1586207,-1.33226763e-15 C17.585213,-1.41063137e-15 17.9310345,0.345821435 17.9310345,0.772413793 L17.9310345,0.772413793 C17.9310345,1.19900615 17.585213,1.54482759 17.1586207,1.54482759 L0.772413793,1.54482759 C0.345821435,1.54482759 5.22424966e-17,1.19900615 0,0.772413793 L0,0.772413793 C-5.22424966e-17,0.345821435 0.345821435,1.89386047e-16 0.772413793,1.11022302e-16 Z M0.7788578,10.7737354 L5.5028578,10.7737354 C5.5195547,10.2577444 5.58129249,9.73998781 5.69295808,9.23370749 L0.7788578,9.23370749 C0.361272489,9.25268748 0.0327915927,9.59187965 0.0327915927,10.0038218 C0.0327915927,10.4155633 0.361272489,10.7547956 0.7788578,10.7737354 Z M8.6254218,4.61694572 L0.7788578,4.61695418 C0.571409041,4.61599114 0.372390179,4.69732824 0.226516317,4.84266765 C0.0804795583,4.98796693 0.000171558217,5.18498971 0.00318514443,5.38939583 C0.00318514443,5.81666641 0.350276972,6.16183747 0.7788578,6.16183747 L7.11748842,6.16183747 C7.55466205,5.57999831 8.05829746,5.06396716 8.6254218,4.61694572 Z M13.7213146,4.79106453 C10.2585005,4.79106453 7.4444218,7.5852167 7.4444218,11.0154595 C7.4444218,14.4487921 10.2618398,17.2413793 13.7213146,17.2413793 C17.1859207,17.2413793 19.9999993,14.4472271 19.9999993,11.0154595 C20.0015876,7.5852167 17.1825813,4.79106453 13.7213146,4.79106453 Z M15.5478737,12.3154888 L13.2043217,12.3154888 C13.0178866,12.3159704 12.8390669,12.2432204 12.7072022,12.1132897 C12.5755003,11.9835195 12.5016674,11.807162 12.5019932,11.6234614 L12.5019932,9.31428218 C12.5019932,8.9321543 12.8165057,8.62225472 13.2043217,8.62225472 C13.5921784,8.62225472 13.9064873,8.9321543 13.9064873,9.31428218 L13.9064873,10.929869 L15.5478737,10.929869 C15.9361783,10.929869 16.2510166,11.2400494 16.2510166,11.6226588 C16.2510166,12.0053084 15.9361783,12.3154888 15.5478737,12.3154888 Z" id="Fill-3"></path>
                </g>
            </g>
        </g>
    </g>
</svg>