<?xml version="1.0" encoding="UTF-8"?>
<svg width="20px" height="21px" viewBox="0 0 20 21" version="1.1" xmlns="http://www.w3.org/2000/svg" xmlns:xlink="http://www.w3.org/1999/xlink">
    <!-- Generator: Sketch 52.5 (67469) - http://www.bohemiancoding.com/sketch -->
    <title>综合指挥</title>
    <desc>Created with Sketch.</desc>
    <g id="页面" stroke="none" stroke-width="1" fill="none" fill-rule="evenodd">
        <g id="综合指挥-车辆-轨迹" transform="translate(-60.000000, -207.000000)" fill="#FFFFFF">
            <g id="菜单栏">
                <g id="综合指挥" transform="translate(60.000000, 207.473684)">
                    <path d="M17.7455666,6.3243548 C19.13803,7.84357099 20,9.85825503 20,12.071228 C20,12.8969135 19.900591,13.6564651 19.6685233,14.4161297 C19.13803,14.019778 18.4749914,13.78862 17.7455666,13.78862 C17.5466352,13.78862 17.3477321,13.8216304 17.181937,13.8216304 C17.3145958,13.2932369 17.4141183,12.7647586 17.4141183,12.2032698 C17.4141183,10.6840536 16.8504603,9.29687929 15.9221325,8.23992266 C16.6846935,7.77755006 17.3145958,7.11702988 17.7455666,6.3243548 Z M7.26901207,19.3703278 C8.52881662,20.0969819 9.9875526,20.5263158 11.545811,20.5263158 C12.9714107,20.5263158 14.3307377,20.1630028 15.5242696,19.5354931 C14.9275036,19.0069866 14.5296691,18.247435 14.4633965,17.3886542 C13.5681766,17.9171325 12.5072752,18.247435 11.3800159,18.247435 C10.3854155,18.247435 9.45717279,18.0161639 8.62833908,17.5868018 C8.29674885,18.2804454 7.83264169,18.874973 7.26901207,19.3703278 Z M3.15789474,10.6840536 C3.6552517,7.71152913 5.67761731,5.30052168 8.39615783,4.21052632 C8.42940764,5.10234584 8.69461173,5.92803139 9.15871889,6.62156203 C7.33528473,7.31520572 5.97595772,8.90055588 5.51182219,10.783085 C5.04771503,10.6509301 4.58349439,10.5849092 4.08622254,10.5849092 C3.75466068,10.5849092 3.45632026,10.6179196 3.15789474,10.6840536 Z" id="Fill-1"></path>
                    <path d="M17.4624215,19.4736842 C18.9511226,19.4736842 20,18.4248133 20,16.9360054 C20,15.8195298 18.9511226,14.7368421 17.4624215,14.7368421 C16.3458233,14.7368421 15.2631579,15.785713 15.2631579,16.9360054 C15.2969459,18.4248133 16.3458233,19.4736842 17.4624215,19.4736842 Z" id="Fill-2"></path>
                    <path d="M0,15.5263017 C0,17.7063907 1.76729354,19.4736842 3.94735435,19.4736842 C6.1274433,19.4736842 7.89473684,17.7063907 7.89473684,15.5263017 C7.89473684,13.3462409 6.1274433,11.5789474 3.94735435,11.5789474 C1.76729354,11.5789474 0,13.3462409 0,15.5263017 Z" id="Fill-3"></path>
                    <path d="M9.47368421,3.9473825 C9.47368421,6.1274433 11.2409778,7.89473684 13.4210386,7.89473684 C15.6011275,7.89473684 17.3684211,6.1274433 17.3684211,3.9473825 C17.3684211,1.76729354 15.6011275,0 13.4210386,0 C11.2409778,0 9.47368421,1.76729354 9.47368421,3.9473825 Z" id="Fill-4"></path>
                </g>
            </g>
        </g>
    </g>
</svg>