<?xml version="1.0" standalone="no"?><!DOCTYPE svg PUBLIC "-//W3C//DTD SVG 1.1//EN" "http://www.w3.org/Graphics/SVG/1.1/DTD/svg11.dtd"><svg t="1556175218193" class="icon" style="" viewBox="0 0 1024 1024" version="1.1" xmlns="http://www.w3.org/2000/svg" p-id="1521" xmlns:xlink="http://www.w3.org/1999/xlink" width="200" height="200"><defs><style type="text/css"></style></defs><path d="M868 957H200V716.8c0-14 11.4-25.4 25.4-25.4h214.5c9 0 16.3 7.3 16.3 16.3V796c0 13.9-11.2 25.1-25.1 25.1-13.9 0-25.1-11.2-25.1-25.1v-54.4H250.1v165.2h567.7V741.6H662.2v52.3c0 13.9-11.2 25.1-25.1 25.1-13.9 0-25.1-11.2-25.1-25.1v-86.2c0-9 7.3-16.3 16.3-16.3h214.3c14 0 25.4 11.4 25.4 25.4V957zM794.3 620.4h-50.2V315.1H323.8v305.3h-50.2V290.3c0-14 11.4-25.4 25.4-25.4h469.9c14 0 25.4 11.4 25.4 25.4v330.1z" fill="#ffffff" p-id="1522"></path><path d="M621.2 592.2H446.7c-13.9 0-25.1-11.2-25.1-25.1 0-13.9 11.2-25.1 25.1-25.1h174.6c13.9 0 25.1 11.2 25.1 25.1-0.1 13.8-11.3 25.1-25.2 25.1zM621.2 459.4H446.7c-13.9 0-25.1-11.2-25.1-25.1 0-13.9 11.2-25.1 25.1-25.1h174.6c13.9 0 25.1 11.2 25.1 25.1-0.1 13.9-11.3 25.1-25.2 25.1zM724.7 216.9h-50.2v-50.2H393.3v50.2h-50.2v-75c0-14 11.4-25.4 25.4-25.4h330.8c14 0 25.4 11.4 25.4 25.4v75z" fill="#A1AFFF" p-id="1523"></path></svg>
