<?xml version="1.0" standalone="no"?><!DOCTYPE svg PUBLIC "-//W3C//DTD SVG 1.1//EN" "http://www.w3.org/Graphics/SVG/1.1/DTD/svg11.dtd"><svg t="1532332996085" class="icon" style="" viewBox="0 0 1024 1024" version="1.1" xmlns="http://www.w3.org/2000/svg" p-id="2359" xmlns:xlink="http://www.w3.org/1999/xlink" width="48" height="48"><defs><style type="text/css"></style></defs><path d="M948.622222 305.777778c-14.222222-7.111111-31.288889-1.422222-38.4 12.8l-21.333333 42.666666c-12.8-32.711111-28.444444-64-48.355556-92.444444C759.466667 153.6 628.622222 85.333333 489.244444 85.333333c-234.666667 0-426.666667 192-426.666666 426.666667s192 426.666667 426.666666 426.666667c187.733333 0 355.555556-125.155556 409.6-304.355556 4.266667-15.644444-4.266667-31.288889-18.488888-35.555555-15.644444-4.266667-31.288889 4.266667-35.555556 18.488888-46.933333 156.444444-192 264.533333-355.555556 264.533334-203.377778 0-369.777778-166.4-369.777777-369.777778s166.4-369.777778 369.777777-369.777778c120.888889 0 234.666667 59.733333 302.933334 157.866667 15.644444 22.755556 28.444444 46.933333 39.822222 72.533333L796.444444 355.555556c-14.222222-7.111111-31.288889-1.422222-38.4 12.8s-1.422222 31.288889 12.8 38.4l100.977778 51.2c4.266667 1.422222 8.533333 2.844444 12.8 2.844444 9.955556 0 19.911111-5.688889 25.6-15.644444l51.2-100.977778c7.111111-14.222222 1.422222-31.288889-12.8-38.4z" p-id="2360" fill="#3668c9"></path><path d="M496.355556 294.4c-62.577778 0-113.777778 51.2-113.777778 113.777778v21.333333H341.333333c-12.8 0-24.177778 11.377778-24.177777 24.177778v190.577778c0 12.8 11.377778 24.177778 24.177777 24.177777h310.044445c12.8 0 24.177778-11.377778 24.177778-24.177777V453.688889c0-12.8-11.377778-24.177778-24.177778-24.177778h-41.244445v-21.333333c-1.422222-62.577778-51.2-113.777778-113.777777-113.777778z m-56.888889 113.777778c0-31.288889 25.6-56.888889 56.888889-56.888889s56.888889 25.6 56.888888 56.888889v21.333333h-113.777777v-21.333333z m71.111111 157.866666v42.666667c0 8.533333-7.111111 15.644444-15.644445 15.644445s-15.644444-7.111111-15.644444-15.644445v-42.666667c-18.488889-7.111111-31.288889-24.177778-31.288889-44.088888 0-25.6 21.333333-46.933333 46.933333-46.933334 25.6 0 46.933333 21.333333 46.933334 46.933334 0 19.911111-12.8 36.977778-31.288889 44.088888z" p-id="2361" fill="#3668c9"></path></svg>