<?xml version="1.0" standalone="no"?><!DOCTYPE svg PUBLIC "-//W3C//DTD SVG 1.1//EN" "http://www.w3.org/Graphics/SVG/1.1/DTD/svg11.dtd"><svg t="1532333345267" class="icon" style="" viewBox="0 0 1024 1024" version="1.1" xmlns="http://www.w3.org/2000/svg" p-id="7188" xmlns:xlink="http://www.w3.org/1999/xlink" width="48" height="48"><defs><style type="text/css"></style></defs><path d="M792.635815 534.32508c-49.276203 33.20905-108.231089 52.502431-171.6769 52.502431-63.255856 0-122.020788-19.166411-171.109036-52.123521C316.886711 599.731422 225.0387 737.946332 225.0387 897.921034c0 169.273475 793.042142 166.933036 793.042142 0-0.062985-160.353611-92.100951-298.758476-225.445027-363.595954zM354.397731 270.925139C354.397731 121.324954 473.699169 0 620.958915 0 768.21866 0 887.520099 121.261969 887.520099 270.926139c0 149.601185-119.301439 270.800169-266.561184 270.800169-147.260745 0-266.561184-121.198984-266.561184-270.800169z m-176.35778 641.038533c0 6.198516 0.947773 12.081108 2.782334 17.900714C80.688258 913.609278 5.919158 881.538956 5.919158 833.210526c0-138.46785 79.449979-258.085213 194.575418-314.383735 40.168384 27.010534 87.988935 43.330626 139.543592 45.039217-98.932315 82.675207-161.999217 207.922223-161.999216 348.098664zM310.053347 270.925139c0-68.759539 21.634821-132.395304 58.386022-184.265886-6.452455-0.568864-12.840926-0.821803-19.293381-0.821803-121.198984 0-219.435466 99.818103-219.435466 222.978618s98.173497 222.976618 219.372481 222.976619c27.263473 0 53.387219-5.058789 77.425464-14.358563-70.973009-57.879143-116.45512-146.754866-116.45512-246.508985z m0 0" p-id="7189" fill="#386998"></path></svg>