<?xml version="1.0" standalone="no"?><!DOCTYPE svg PUBLIC "-//W3C//DTD SVG 1.1//EN" "http://www.w3.org/Graphics/SVG/1.1/DTD/svg11.dtd"><svg t="1532332924447" class="icon" style="" viewBox="0 0 1024 1024" version="1.1" xmlns="http://www.w3.org/2000/svg" p-id="1583" xmlns:xlink="http://www.w3.org/1999/xlink" width="48" height="48"><defs><style type="text/css"></style></defs><path d="M484.352 633.6H476.16c-169.088 1.088-312.128 134.848-336.704 314.88a45.12 45.12 0 0 1 1.472 11.072l0.32 3.904a42.048 42.048 0 0 1-18.688 37.12 36.032 36.032 0 0 1-39.168 0 42.048 42.048 0 0 1-18.688-37.12c-0.96-1.6-0.64-2.752-0.448-4.096 0-3.328 0.384-6.656 1.088-9.92 17.92-164.096 118.016-304.512 260.736-365.76-84.864-61.952-142.08-165.568-140.8-275.904-5.44-114.24 55.104-204.8 146.304-263.68a270.784 270.784 0 0 1 296.32 0c91.264 58.88 152.448 149.44 147.072 263.68 1.28 110.208-56.384 213.824-141.056 275.968 35.008 14.976 67.84 35.008 97.664 59.392 16.896 13.824 15.552 40.832-8.704 55.36-24.32 14.464-65.28-12.544-65.28-12.544A324.16 324.16 0 0 0 484.288 633.6zM597.76 109.056a208.576 208.576 0 0 0-226.304-5.632c-70.72 42.752-120.96 106.048-120 193.28v11.2c0 131.648 106.24 238.336 228.608 238.272 122.432 0 229.12-106.752 229.12-238.4 4.8-87.04-42.624-152.448-111.36-198.72z m9.92 705.28h320a32 32 0 0 1 0 64h-320a32 32 0 1 1 0-64z m0 128h320a32 32 0 0 1 0 64h-320a32 32 0 1 1 0-64z" fill="#fecc31" p-id="1584"></path></svg>