<?xml version="1.0" standalone="no"?><!DOCTYPE svg PUBLIC "-//W3C//DTD SVG 1.1//EN" "http://www.w3.org/Graphics/SVG/1.1/DTD/svg11.dtd"><svg t="1532333281253" class="icon" style="" viewBox="0 0 1024 1024" version="1.1" xmlns="http://www.w3.org/2000/svg" p-id="6914" xmlns:xlink="http://www.w3.org/1999/xlink" width="48" height="48"><defs><style type="text/css"></style></defs><path d="M701.154233 0c-175.532651 0-318.392558 143.550512-318.392559 319.011721 0 42.198326 7.215628 79.229023 22.075535 116.259721L17.241302 823.629395c-12.52614 12.52614-17.241302 22.146977-17.241302 39.412093v96.637024C0 994.351628 29.743628 1024 64.202419 1024h96.446511c17.241302 0 27.243163-7.239442 39.340651-17.265116l46.556279-47.056372h73.942326a64.464372 64.464372 0 0 0 64.202419-64.345303v-64.321488h64.202418c34.625488 0 64.226233-29.791256 64.226233-64.345302v-74.061396l26.004837-26.052465c6.191628-6.239256 9.716093-14.693209 9.716093-23.504372 0-29.600744-35.72093-44.436837-56.629581-23.504372l-28.576745 28.648186c-12.502326 12.52614-19.741767 27.290791-19.741767 44.698791v74.061395h-64.202419c-34.601674 0-64.202419 29.81507-64.202418 64.345302v64.321489h-73.656558c-17.241302 0-32.101209 7.239442-44.627349 19.765581l-44.174884 44.698791H61.416186v-91.326512l419.744744-420.554418c-22.099349-37.006884-36.98307-81.705674-36.98307-128.785861 0-140.764279 113.687814-254.666419 254.19014-254.666418C838.870326 64.75014 952.55814 178.223628 952.55814 319.011721a256.381023 256.381023 0 0 1-13.216745 86.13507 34.768372 34.768372 0 1 0 65.583628 23.004279c12.430884-34.053953 19.074977-70.822698 19.074977-109.139349C1019.713488 143.264744 876.258233 0 701.154233 0M983.992558 876.091535h-238.139535c-22.075535 0-39.983628 17.122233-39.983628 38.245209 0 21.099163 17.908093 38.221395 40.007442 38.221396h238.139535c22.051721 0 39.959814-17.122233 39.959814-38.221396 0-21.122977-17.908093-38.245209-39.983628-38.245209m-346.088186 0h-0.428651c-22.099349 0-40.007442 17.122233-40.007442 38.245209 0 21.099163 17.908093 38.221395 40.007442 38.221396h0.428651c22.075535 0 39.983628-17.122233 39.983628-38.221396 0-21.122977-18.336744-38.245209-40.007442-38.245209m0-337.062698h-0.404837c-22.099349 0-40.007442 17.122233-40.007442 38.221396 0 21.122977 17.908093 38.245209 40.007442 38.245209h0.428651c22.075535 0 39.983628-17.122233 39.983628-38.245209 0-21.099163-18.336744-38.221395-40.007442-38.221396m346.112 0h-238.139535c-22.075535 0-39.983628 17.122233-39.983628 38.221396 0 21.122977 17.908093 38.245209 40.007442 38.245209h238.139535c22.051721 0 39.959814-17.122233 39.959814-38.245209 0-21.099163-17.908093-38.221395-39.983628-38.221396M637.928186 707.274419h-0.428651c-22.099349 0-40.007442 17.122233-40.007442 38.245209 0 21.122977 17.908093 38.221395 40.007442 38.221395h0.428651c22.075535 0 39.983628-17.098419 39.983628-38.221395 0-20.575256-18.336744-38.245209-40.007442-38.245209m346.112 0h-238.139535c-22.075535 0-39.983628 17.122233-39.983628 38.245209 0 21.122977 17.908093 38.221395 40.007442 38.221395h238.139535c22.051721 0 39.959814-17.098419 39.959814-38.221395 0-20.575256-17.908093-38.245209-39.983628-38.245209M628.688372 251.522977c28.719628 38.650047 66.250419 74.537674 114.735628 109.306046 30.005581-11.597395 48.794791-30.362791 57.58214-57.010604-28.719628-39.054884-66.226605-74.942512-115.16428-109.734698-26.695442 10.763907-45.484651 29.410233-57.153488 57.439256m113.449675 165.078325c-9.525581 0-20.075163-2.762419-27.576559-7.620465-48.342326-32.267907-92.94586-74.918698-135.977674-130.000372l-0.404837-0.833488-0.428651-0.809675c-2.905302-5.524837-6.215442-12.026047-6.215442-21.956465 0-2.762419 0.857302-5.524837 1.738418-8.430139 0.428651-0.809674 0.428651-1.666977 0.857303-1.905117v-1.666976l0.857302-1.952745c20.075163-49.413953 54.295814-81.68186 101.757023-96.875162 3.333953-1.26214 6.644093-1.666977 10.835349-1.666977 9.525581 0 20.051349 2.762419 27.552744 7.596651 48.342326 32.291721 92.517209 74.537674 135.52521 129.190698 3.762605 3.572093 12.145116 12.430884 7.930046 26.362046-0.428651 1.92893-0.857302 4.429395-1.714605 6.358326-0.428651 0.809674-0.428651 1.666977-0.881116 1.905116v1.666977l-0.857302 1.952744c-20.051349 49.413953-54.272 81.68186-101.757023 96.875163a30.553302 30.553302 0 0 1-11.240186 1.80986" fill="#6ccc9b" p-id="6915"></path></svg>