<?xml version="1.0" standalone="no"?><!DOCTYPE svg PUBLIC "-//W3C//DTD SVG 1.1//EN" "http://www.w3.org/Graphics/SVG/1.1/DTD/svg11.dtd"><svg class="icon" width="200px" height="200.00px" viewBox="0 0 1024 1024" version="1.1" xmlns="http://www.w3.org/2000/svg"><path d="M607.97 896.057c17.658 0 31.974 14.314 31.974 31.971 0 17.658-14.316 31.972-31.974 31.972H214.777a150.664 150.664 0 0 1-106.675-44.147A150.64 150.64 0 0 1 64 809.166V214.852a150.64 150.64 0 0 1 44.095-106.697A150.664 150.664 0 0 1 214.774 64h594.362a150.802 150.802 0 0 1 106.697 44.163A150.777 150.777 0 0 1 960 214.852v0.105l-1.326 393.157c-0.212 17.558-14.522 31.673-32.084 31.646-17.561-0.028-31.827-14.188-31.984-31.748v-0.104l1.352-393.092c-0.011-23.204-8.975-45.013-25.377-61.415a86.352 86.352 0 0 0-61.445-25.458H214.774a86.854 86.854 0 0 0-61.42 25.468 86.84 86.84 0 0 0-25.405 61.44v594.315a86.826 86.826 0 0 0 25.408 61.434 86.84 86.84 0 0 0 61.417 25.457H607.97z m342.664 9.366c12.488 12.485 12.488 32.728 0 45.213-12.487 12.485-32.733 12.485-45.22 0L783.32 828.564c-81.451 57.93-193.714 43.789-258.25-32.53-64.534-76.32-59.809-189.353 10.871-260.022 70.68-70.668 183.732-75.393 260.064-10.869 76.333 64.525 90.476 176.77 32.536 258.207l122.092 122.073zM672.04 800.12h0.003a127.228 127.228 0 0 0 90.543-37.498c43.198-43.189 49.866-110.872 15.928-161.659-33.939-50.786-99.032-70.53-155.472-47.157-56.44 23.373-88.506 83.353-76.59 143.259C558.37 756.97 610.95 800.12 672.04 800.12z m96.024-447.818l-512.092-0.185c-17.66 0-31.972-14.435-31.972-32.093 0-17.666 14.306-31.996 31.975-32.024l512.092 0.166c17.66 0.004 31.972 14.425 31.972 32.079s-14.318 32.057-31.975 32.057zM448.005 544.123l-192.033-0.061a31.946 31.946 0 0 1-27.665-15.97 31.935 31.935 0 0 1 0-31.94 31.946 31.946 0 0 1 27.665-15.97h192.033a31.976 31.976 0 0 1 27.692 15.986 31.966 31.966 0 0 1 0 31.97 31.976 31.976 0 0 1-27.692 15.985zM255.99 672.003l128.021 0.062a31.948 31.948 0 0 1 27.95 15.871 31.937 31.937 0 0 1 0 32.137 31.948 31.948 0 0 1-27.95 15.871l-128.021-0.018c-17.655 0-31.967-14.31-31.967-31.961 0-17.652 14.312-31.961 31.967-31.961z"  /></svg>