<?xml version="1.0" encoding="UTF-8"?>
<svg width="20px" height="20px" viewBox="0 0 20 20" version="1.1" xmlns="http://www.w3.org/2000/svg" xmlns:xlink="http://www.w3.org/1999/xlink">
    <!-- Generator: Sketch 52.5 (67469) - http://www.bohemiancoding.com/sketch -->
    <title>退出</title>
    <desc>Created with Sketch.</desc>
    <g id="页面" stroke="none" stroke-width="1" fill="none" fill-rule="evenodd">
        <g id="作业规划管理-菜单栏收起状态" transform="translate(-1817.000000, -20.000000)">
            <g id="退出" transform="translate(1817.000000, 20.000000)">
                <rect id="Rectangle-43-Copy-3" x="0" y="2" width="20" height="20"></rect>
                <g id="login" fill="#677881" fill-rule="nonzero">
                    <path d="M8.65039062,12.1582031 C8.375,12.4335937 8.375,12.8769531 8.6484375,13.1503906 C8.78515625,13.2871094 8.96679688,13.3574219 9.14648437,13.3574219 C9.32617188,13.3574219 9.5078125,13.2890625 9.64453125,13.1523437 L12.296875,10.5 C12.5722656,10.2246094 12.5722656,9.77539062 12.296875,9.5 L9.64453125,6.84960937 C9.36914062,6.57421875 8.92382813,6.57421875 8.65039062,6.84960937 C8.375,7.125 8.375,7.5703125 8.65039062,7.84375 L10.1015625,9.29492187 L0.705078125,9.296875 C0.31640625,9.296875 0.001953125,9.61132812 0.001953125,10 C0.001953125,10.3886719 0.318359375,10.7050781 0.705078125,10.7050781 L10.1015625,10.7070312 L8.65039062,12.1582031 Z" id="Shape"></path>
                    <path d="M19.2128906,6.109375 C18.7089844,4.91796875 17.9882813,3.84765625 17.0703125,2.9296875 C16.1523438,2.01171875 15.0839844,1.2890625 13.8925781,0.78515625 C12.6601563,0.263671875 11.3496094,0 10,0 C8.41210937,0 6.89257812,0.361328125 5.484375,1.07421875 C4.14257812,1.75585938 2.95117187,2.74804687 2.04101562,3.94921875 C1.8046875,4.2578125 1.86523437,4.69921875 2.17382812,4.93359375 C2.48242187,5.16992187 2.92382812,5.109375 3.15820312,4.80078125 C3.94335937,3.76953125 4.96679687,2.9140625 6.12109375,2.33007812 C7.33007812,1.71679688 8.63476562,1.40625 10,1.40625 C11.1601562,1.40625 12.2851562,1.6328125 13.34375,2.08007812 C14.3671875,2.51171875 15.2871094,3.1328125 16.0761719,3.921875 C16.8652344,4.7109375 17.484375,5.63085938 17.9179688,6.65429688 C18.3671875,7.71484375 18.59375,8.83984375 18.59375,10 C18.59375,11.1601562 18.3671875,12.2851562 17.9199219,13.34375 C17.4882813,14.3671875 16.8671875,15.2871094 16.078125,16.0761719 C15.2890625,16.8652344 14.3691406,17.484375 13.3457031,17.9179687 C12.2851562,18.3691406 11.1601562,18.59375 10,18.59375 C8.63476562,18.59375 7.33007812,18.2832031 6.1171875,17.6679688 C4.96484375,17.0839844 3.93945312,16.2285156 3.15429687,15.1972656 C2.91992187,14.8886719 2.47851562,14.8300781 2.16992187,15.0644531 C1.86132812,15.2988281 1.80273437,15.7402344 2.03710937,16.0488281 C2.95117187,17.25 4.14257812,18.2441406 5.484375,18.9238281 C6.89257812,19.6367188 8.41210937,19.9980469 10,19.9980469 C11.3496094,19.9980469 12.6601563,19.734375 13.8925781,19.2128906 C15.0820313,18.7109375 16.1523438,17.9882812 17.0703125,17.0703125 C17.9882813,16.1523437 18.7109375,15.0839844 19.2148438,13.8925781 C19.7363281,12.6601562 20,11.3496094 20,10 C20,8.65039062 19.7363281,7.33984375 19.2128906,6.109375 Z" id="Shape"></path>
                </g>
            </g>
        </g>
    </g>
</svg>