<?xml version="1.0" standalone="no"?><!DOCTYPE svg PUBLIC "-//W3C//DTD SVG 1.1//EN" "http://www.w3.org/Graphics/SVG/1.1/DTD/svg11.dtd"><svg t="1560412763386" class="icon" style="" viewBox="0 0 1024 1024" version="1.1" xmlns="http://www.w3.org/2000/svg" p-id="6797" xmlns:xlink="http://www.w3.org/1999/xlink" width="16" height="16"><defs><style type="text/css"></style></defs><path d="M259.84 314.88a32 32 0 0 0-52.48 24.96v336.64a32 32 0 0 0 52.48 24.96l205.44-168.96a32 32 0 0 0 0-49.28z m11.52 293.76V407.04l122.88 101.12zM823.68 311.04a32 32 0 0 0-33.92 4.48L584.32 483.2a32 32 0 0 0 0 49.28l204.8 171.52a32 32 0 0 0 52.48-24.96v-339.2a32 32 0 0 0-17.92-28.8z m-45.44 297.6l-123.52-100.48 122.88-100.48zM524.8 170.24a32 32 0 0 0-32 32v620.16a32 32 0 0 0 64 0V202.24a32 32 0 0 0-32-32z" fill="#d81e06" p-id="6798"></path></svg>