<?xml version="1.0" standalone="no"?><!DOCTYPE svg PUBLIC "-//W3C//DTD SVG 1.1//EN" "http://www.w3.org/Graphics/SVG/1.1/DTD/svg11.dtd"><svg t="1532071254923" class="icon" style="" viewBox="0 0 1024 1024" version="1.1" xmlns="http://www.w3.org/2000/svg" p-id="3269" xmlns:xlink="http://www.w3.org/1999/xlink" width="48" height="48"><defs><style type="text/css"></style></defs><path d="M985.003808 379.362953c-20.797969-30.796992-48.895225-56.394493-81.892003-74.792696-4.19959-44.295674-23.497705-85.591641-55.59457-117.588517-36.396446-36.396446-84.491749-56.394493-135.586759-56.394493-26.097451 0-52.194903 6.299385-77.892394 18.598184C578.343521 94.790743 503.750806 63.993751 425.658432 63.993751c-71.992969 0-140.986232 25.49751-194.181037 71.792989-48.095303 41.895909-80.492139 98.090421-92.490968 159.884386-37.296358 17.698272-69.493214 43.895713-93.790841 76.39254C15.598477 411.759789 0 458.155258 0 506.350552c0 77.992384 39.896104 150.785275 106.789571 194.680988 14.798555 9.699053 34.596621 5.599453 44.295675-9.199102 9.699053-14.798555 5.599453-34.596621-9.199102-44.295674-48.795235-31.996875-77.892393-84.79172-77.892393-141.186212 0-34.296651 11.198906-67.493409 32.496826-95.990626 20.497998-27.497315 49.895127-49.595157 82.891905-62.493897 10.898936-4.29958 18.698174-14.198613 20.098037-25.797481 6.799336-53.394786 32.996778-102.390001 73.992775-138.086515 41.495948-36.096475 95.590665-56.094522 152.185138-56.094522 34.896592 0 68.493311 7.499268 99.690264 22.297822 29.497119 13.998633 56.494483 34.696612 78.092374 59.794161 10.298994 12.098818 27.997266 14.698565 41.395958 6.199395 23.097744-14.598574 44.995606-21.697881 67.093448-21.697881 33.99668 0 66.093546 13.398692 90.391172 37.596328 24.297627 24.297627 37.596328 56.394493 37.596329 90.391173v2.099795c0 12.498779 7.299287 23.897666 18.698174 29.097158 62.493897 28.597207 101.290108 86.991505 101.290108 152.585099 0 57.494385-29.997071 110.889171-80.392149 142.786057-14.898545 9.499072-19.398106 29.197149-9.899033 44.195684 6.099404 9.599063 16.498389 14.898545 27.097353 14.898545 5.899424 0 11.798848-1.599844 17.098331-4.999512 68.993262-43.695733 110.089249-117.188556 110.089249-196.780783 0-45.395567-13.498682-89.29128-38.896202-126.987599z" fill="#ffffff" p-id="3270"></path><path d="M511.950005 447.956254c-18.998145 0-37.796309 1.899814-56.294503 5.499463l41.395958-41.395957c12.498779-12.498779 12.498779-32.796797 0-45.295577s-32.796797-12.498779-45.295577 0l-90.491163 90.491163c-12.498779 12.498779-12.498779 32.796797 0 45.295577l90.491163 90.491163c6.199395 6.199395 14.398594 9.399082 22.597793 9.399082s16.398399-3.099697 22.597794-9.399082c12.498779-12.498779 12.498779-32.796797 0-45.295577l-30.996973-31.096963c14.998535-3.099697 30.397032-4.699541 45.995508-4.699541 59.794161 0 116.088663 23.297725 158.384533 65.593594C712.630407 619.839469 735.928132 676.133971 735.928132 735.928132c0 18.998145-2.399766 37.896299-7.099307 56.194512-4.39957 17.09833 5.899424 34.596621 22.997754 38.996192 2.699736 0.699932 5.399473 0.999902 7.999219 0.999902 14.198613 0 27.197344-9.599063 30.996973-23.997656 6.099404-23.497705 9.099111-47.695342 9.099112-72.19295 0-76.892491-29.997071-149.285421-84.391759-203.580119C661.235426 477.953325 588.842496 447.956254 511.950005 447.956254zM572.044136 788.323015c-12.498779-12.498779-32.796797-12.498779-45.295576 0s-12.498779 32.796797 0 45.295577l52.194903 52.194903c-21.597891 6.799336-44.095694 10.199004-66.993458 10.199004-59.794161 0-116.088663-23.297725-158.384533-65.593595C311.269603 788.023045 287.971878 731.728542 287.971878 671.934381c0-19.098135 2.399766-38.09628 7.199297-56.394492 4.39957-17.09833-5.799434-34.596621-22.897764-38.996192-17.09833-4.39957-34.596621 5.799434-38.996192 22.897764-6.099404 23.597696-9.199102 47.895323-9.199102 72.49292 0 76.892491 29.997071 149.285421 84.391759 203.58012C362.664584 929.909189 435.057514 959.906259 511.950005 959.906259c8.49917 0 16.99834-0.399961 25.39752-1.099892l-10.498975 10.498974c-12.498779 12.498779-12.498779 32.796797 0 45.295577 6.199395 6.199395 14.398594 9.399082 22.597793 9.399082s16.398399-3.099697 22.597793-9.399082l90.491163-90.491163c12.498779-12.498779 12.498779-32.796797 0-45.295577l-90.491163-90.491163z" fill="#ffffff" p-id="3271"></path></svg>