<?xml version="1.0" standalone="no"?><!DOCTYPE svg PUBLIC "-//W3C//DTD SVG 1.1//EN" "http://www.w3.org/Graphics/SVG/1.1/DTD/svg11.dtd"><svg t="1534753511112" class="icon" style="" viewBox="0 0 1024 1024" version="1.1" xmlns="http://www.w3.org/2000/svg" p-id="2721" xmlns:xlink="http://www.w3.org/1999/xlink" width="48" height="48"><defs><style type="text/css"></style></defs><path d="M58.8 703.904c0 14.688 0 58.24 0 67.84s5.696 26.016 26.304 26.016c15.808 0 142.016 0 199.84 0 17.504 0 28.8 0 28.8 0l4.96 0c0 0 3.328 0 8.672 0 0 15.488 0 29.568 0 34.976 0 11.872 7.04 32.192 32.544 32.192 19.584 0 176.288 0 247.872 0 21.664 0 35.712 0 35.712 0l6.144 0c0 0 13.76 0 35.104 0 71.328 0 228.288 0 247.904 0 25.472 0 32.544-20.288 32.544-32.192s0-65.76 0-83.936-6.432-38.336-32.544-49.536c-33.024-14.464-121.568-46.464-177.184-62.88-4.288-1.376-5.024-1.6-5.024-20.672 0-20.544 2.368-35.104 7.36-45.792 6.88-14.592 15.008-39.168 17.888-61.184 8.192-9.472 19.296-28.16 26.432-63.776 6.304-31.392 3.36-42.816-0.8-53.536-0.448-1.12-0.928-2.24-1.248-3.52-1.536-7.2 0.576-45.44 6.016-75.136 3.712-20.352-0.96-63.616-28.992-99.456-17.696-22.624-51.584-50.432-112.416-54.24l-33.92-0.032c-61.856 3.872-95.712 31.648-113.408 54.272-28.032 35.808-32.672 79.104-28.96 99.456 5.376 29.664 7.552 67.904 5.952 75.264-0.32 1.12-0.8 2.24-1.216 3.36-4.16 10.72-7.072 22.144-0.832 53.536 7.136 35.616 18.272 54.304 26.432 63.776 2.912 22.016 11.04 46.592 17.888 61.184 6.336 13.44 12.8 29.312 12.8 45.088 0 19.104-0.736 19.328-5.312 20.768-11.456 3.36-24.416 7.424-38.048 11.776-32.128-11.936-72.544-25.888-101.856-34.56-3.488-1.088-4.064-1.28-4.064-16.704 0-16.608 1.92-28.384 5.952-37.024 5.568-11.808 12.128-31.648 14.496-49.472 6.592-7.648 15.584-22.752 21.344-51.552 5.088-25.376 2.688-34.592-0.672-43.264-0.352-0.928-0.736-1.824-0.992-2.848-1.248-5.824 0.448-36.736 4.8-60.736 2.976-16.448-0.736-51.424-23.392-80.416-14.304-18.272-41.696-40.736-90.816-43.872l-27.392 0c-49.984 3.104-77.344 25.6-91.648 43.872-22.656 28.992-26.432 63.968-23.392 80.416 4.32 24 6.112 54.912 4.832 60.864-0.256 0.896-0.672 1.792-0.992 2.72-3.392 8.672-5.728 17.888-0.672 43.264 5.76 28.8 14.752 43.904 21.344 51.552 2.368 17.824 8.928 37.632 14.464 49.472 5.12 10.88 10.368 23.712 10.368 36.448 0 15.456-0.576 15.616-4.288 16.8-43.456 12.832-113.696 37.216-143.424 49.664-21.12 9.056-31.232 27.04-31.232 41.728zM360.912 748.832c0-4.992 4.992-15.04 18.368-20.768 35.296-14.752 121.792-44.576 174.336-60.064 29.376-9.216 29.376-34.496 29.376-52.96 0-22.368-8.096-42.56-16.032-59.392-5.472-11.712-12.512-32.8-14.976-51.296l-1.312-9.92-6.56-7.584c-3.616-4.192-12.704-17.312-18.912-48.48-4.864-24.352-2.72-29.888-0.832-34.784l0.032-0.064 0.288-0.832c0.704-1.728 1.312-3.456 1.792-5.152l0.352-1.216 0.256-1.248c3.424-16.032-1.056-62.24-5.76-88.256-2.144-11.712 0.544-44.864 22.4-72.8 19.424-24.832 49.056-38.752 88.064-41.408l31.776 0.032c47.776 3.264 73.696 24.256 87.072 41.376 21.856 27.936 24.512 61.088 22.4 72.736-4.608 25.376-9.184 72.32-5.792 88.16l0.16 0.704 0.192 0.704c0.704 2.72 1.568 5.152 2.56 7.584 1.728 4.512 3.904 10.144-0.96 34.432-6.24 31.2-15.296 44.256-18.912 48.416l-6.592 7.616-1.28 9.984c-2.464 18.528-9.472 39.52-15.008 51.232-7.2 15.392-10.56 34.464-10.56 60.096 0 18.432 0 43.648 28.416 52.672 54.144 16 142.08 47.712 173.888 61.632 9.472 4.064 12.448 8.608 12.448 18.784l0 82.528-570.496 0-0.16-82.528zM92.368 703.904c0.064-1.312 2.144-7.104 10.912-10.88 28.768-12.064 98.112-36.032 139.68-48.32 28.352-9.024 28.352-34.048 28.352-48.992 0-19.296-6.848-36.48-13.568-50.752-4.352-9.312-9.728-25.952-11.552-39.584l-1.312-9.92-6.528-7.584c-2.048-2.336-8.992-11.904-13.856-36.256-3.584-17.824-2.144-21.536-0.992-24.512l0.192-0.448 0.128-0.448c0.704-1.728 1.152-3.104 1.536-4.48l0.384-1.248 0.256-1.248c3.296-15.488-1.44-56.416-4.608-73.888-1.472-8.224 0.704-33.088 16.864-53.76 14.496-18.496 36.768-28.928 66.272-30.976l25.216 0c36.064 2.56 55.488 18.208 65.472 30.976 16.128 20.64 18.336 45.568 16.864 53.76-3.392 18.464-7.808 58.912-4.672 73.728l0.16 0.704 0.16 0.704c0.64 2.368 1.376 4.48 2.208 6.624 1.152 2.944 2.592 6.72-0.96 24.512-4.896 24.384-11.84 33.888-13.856 36.224l-6.528 7.584-1.312 9.92c-1.824 13.696-7.2 30.304-11.616 39.616-6.24 13.344-9.152 29.632-9.152 51.296 0 14.976 0 40.032 27.488 48.736 17.376 5.152 39.008 12.256 60.384 19.712-35.296 12.096-68.96 24.352-88.416 32.48-26.176 11.232-38.688 33.44-38.688 51.616 0 3.776 0 9.184 0 15.392l-234.976 0 0-60.288z" p-id="2722" fill="#8a8a8a"></path></svg>